<svg width="100" height="100" viewBox="0 0 100 100" fill="none" xmlns="http://www.w3.org/2000/svg">
<path d="M45.7253 68.8571L57.1429 65.9341C57.5264 65.8672 57.8797 65.6829 58.1539 65.4066L97.9011 25.6374C98.9574 24.5785 99.5505 23.144 99.5505 21.6484C99.5505 20.1528 98.9574 18.7182 97.9011 17.6593L94.6923 14.4396C94.1681 13.9135 93.5445 13.4968 92.8578 13.2139C92.1711 12.9309 91.435 12.7872 90.6923 12.7912C89.9515 12.7887 89.2175 12.933 88.5328 13.216C87.8481 13.4989 87.2263 13.9148 86.7033 14.4396L80.1099 21.033V8.6044C80.1085 7.56496 79.902 6.53601 79.5022 5.57652C79.1024 4.61703 78.5172 3.74585 77.7802 3.0129C77.0432 2.27995 76.1688 1.69963 75.2071 1.30519C74.2454 0.910751 73.2153 0.709949 72.1759 0.714287H8.72531C6.63362 0.717194 4.62843 1.5494 3.14938 3.02846C1.67032 4.50751 0.838112 6.5127 0.835205 8.6044V77.4396C0.838112 79.5313 1.67032 81.5364 3.14938 83.0155C4.62843 84.4946 6.63362 85.3268 8.72531 85.3297H38.8572L57.8352 98.9011C58.1224 99.1071 58.4609 99.23 58.8134 99.2562C59.1659 99.2825 59.5188 99.211 59.8334 99.0498C60.1479 98.8885 60.4119 98.6437 60.5964 98.3422C60.7809 98.0407 60.8788 97.6941 60.8792 97.3407V85.3297H72.1759C74.2676 85.3268 76.2727 84.4946 77.7518 83.0155C79.2308 81.5364 80.0631 79.5313 80.066 77.4396V55.6484C80.066 55.1383 79.8634 54.6492 79.5027 54.2885C79.1421 53.9279 78.6529 53.7253 78.1429 53.7253C77.6329 53.7253 77.1437 53.9279 76.7831 54.2885C76.4224 54.6492 76.2198 55.1383 76.2198 55.6484V77.4396C76.2198 77.9706 76.1152 78.4965 75.912 78.9871C75.7088 79.4778 75.4109 79.9236 75.0354 80.2991C74.6598 80.6746 74.214 80.9725 73.7234 81.1757C73.2328 81.3789 72.7069 81.4835 72.1759 81.4835H55.8682C55.3581 81.4835 54.869 81.6861 54.5083 82.0468C54.1477 82.4074 53.9451 82.8966 53.9451 83.4066C53.9451 83.9166 54.1477 84.4058 54.5083 84.7664C54.869 85.1271 55.3581 85.3297 55.8682 85.3297H57.033V93.6044L40.5495 81.8352C40.2285 81.6069 39.8445 81.4841 39.4506 81.4835H8.68136C8.1503 81.4835 7.62444 81.3789 7.1338 81.1757C6.64317 80.9725 6.19737 80.6746 5.82185 80.2991C5.44633 79.9236 5.14846 79.4778 4.94523 78.9871C4.742 78.4965 4.6374 77.9706 4.6374 77.4396V8.6044C4.63737 8.06962 4.74341 7.54014 4.94938 7.04662C5.15535 6.5531 5.45716 6.10533 5.83735 5.72923C6.21753 5.35314 6.66854 5.05618 7.16426 4.85556C7.65998 4.65494 8.19057 4.55463 8.72531 4.56044H72.1759C73.2484 4.56044 74.277 4.9865 75.0354 5.74489C75.7938 6.50328 76.2198 7.53187 76.2198 8.6044V24.9231L46.9561 54.1868C46.6821 54.4627 46.4982 54.8152 46.4286 55.1978L43.3737 66.4835C43.2766 66.8094 43.2703 67.1556 43.3555 67.4849C43.4407 67.8141 43.6142 68.1138 43.8572 68.3517C44.1004 68.5871 44.3993 68.757 44.726 68.8454C45.0528 68.9338 45.3966 68.9379 45.7253 68.8571V68.8571ZM86.1649 20.4176L91.9231 26.1758L56.7583 61.3407L51 55.5934L86.1649 20.4176ZM49.3847 59.3407L52.9671 62.9231L47.989 64.2747L49.3847 59.3407ZM90.6923 16.6374C90.9291 16.6367 91.1637 16.6829 91.3825 16.7735C91.6013 16.864 91.8 16.997 91.9671 17.1648L95.1759 20.3736C95.343 20.5401 95.4756 20.7378 95.5661 20.9557C95.6566 21.1735 95.7031 21.407 95.7031 21.6429C95.7031 21.8787 95.6566 22.1123 95.5661 22.3301C95.4756 22.5479 95.343 22.7457 95.1759 22.9121L94.6374 23.4506L88.8901 17.7033L89.4286 17.1648C89.5929 16.9963 89.7895 16.8628 90.0066 16.7721C90.2238 16.6815 90.457 16.6357 90.6923 16.6374V16.6374Z" fill="#5AC37E"/>
<path d="M18.978 20.1648H34.6483C35.1584 20.1648 35.6475 19.9622 36.0082 19.6016C36.3688 19.2409 36.5714 18.7518 36.5714 18.2418C36.5714 17.7317 36.3688 17.2426 36.0082 16.8819C35.6475 16.5213 35.1584 16.3187 34.6483 16.3187H18.978C18.468 16.3187 17.9788 16.5213 17.6182 16.8819C17.2575 17.2426 17.0549 17.7317 17.0549 18.2418C17.0549 18.7518 17.2575 19.2409 17.6182 19.6016C17.9788 19.9622 18.468 20.1648 18.978 20.1648Z" fill="#5AC37E"/>
<path d="M55.066 20.1648C55.576 20.1648 56.0652 19.9622 56.4258 19.6016C56.7865 19.2409 56.9891 18.7518 56.9891 18.2418C56.9891 17.7317 56.7865 17.2426 56.4258 16.8819C56.0652 16.5213 55.576 16.3187 55.066 16.3187H43.088C42.578 16.3187 42.0888 16.5213 41.7282 16.8819C41.3675 17.2426 41.1649 17.7317 41.1649 18.2418C41.1649 18.7518 41.3675 19.2409 41.7282 19.6016C42.0888 19.9622 42.578 20.1648 43.088 20.1648H55.066Z" fill="#5AC37E"/>
<path d="M18.978 36.2637H26.3736C26.8836 36.2637 27.3728 36.0611 27.7334 35.7005C28.0941 35.3398 28.2967 34.8507 28.2967 34.3407C28.2967 33.8306 28.0941 33.3415 27.7334 32.9808C27.3728 32.6202 26.8836 32.4176 26.3736 32.4176H18.978C18.468 32.4176 17.9788 32.6202 17.6182 32.9808C17.2575 33.3415 17.0549 33.8306 17.0549 34.3407C17.0549 34.8507 17.2575 35.3398 17.6182 35.7005C17.9788 36.0611 18.468 36.2637 18.978 36.2637Z" fill="#5AC37E"/>
<path d="M42.3737 50.4725C42.3737 49.9625 42.1711 49.4734 41.8104 49.1127C41.4498 48.7521 40.9606 48.5495 40.4506 48.5495H33.7583C33.2483 48.5495 32.7591 48.7521 32.3985 49.1127C32.0378 49.4734 31.8352 49.9625 31.8352 50.4725C31.8352 50.9826 32.0378 51.4717 32.3985 51.8324C32.7591 52.193 33.2483 52.3956 33.7583 52.3956H40.4506C40.9606 52.3956 41.4498 52.193 41.8104 51.8324C42.1711 51.4717 42.3737 50.9826 42.3737 50.4725Z" fill="#5AC37E"/>
<path d="M18.978 68.5055H37.4615C37.9716 68.5055 38.4607 68.3029 38.8213 67.9422C39.182 67.5816 39.3846 67.0925 39.3846 66.5824C39.3846 66.0724 39.182 65.5832 38.8213 65.2226C38.4607 64.862 37.9716 64.6593 37.4615 64.6593H18.978C18.468 64.6593 17.9788 64.862 17.6182 65.2226C17.2575 65.5832 17.0549 66.0724 17.0549 66.5824C17.0549 67.0925 17.2575 67.5816 17.6182 67.9422C17.9788 68.3029 18.468 68.5055 18.978 68.5055Z" fill="#5AC37E"/>
<path d="M66.033 20.1648C66.543 20.1648 67.0322 19.9622 67.3928 19.6016C67.7535 19.2409 67.9561 18.7518 67.9561 18.2418C67.9561 17.7317 67.7535 17.2426 67.3928 16.8819C67.0322 16.5213 66.543 16.3187 66.033 16.3187H62.3407C61.8306 16.3187 61.3415 16.5213 60.9809 16.8819C60.6202 17.2426 60.4176 17.7317 60.4176 18.2418C60.4176 18.7518 60.6202 19.2409 60.9809 19.6016C61.3415 19.9622 61.8306 20.1648 62.3407 20.1648H66.033Z" fill="#5AC37E"/>
<path d="M56.9891 34.3626C56.9891 33.8526 56.7865 33.3635 56.4258 33.0028C56.0652 32.6422 55.576 32.4396 55.066 32.4396H34.1869C33.9343 32.4396 33.6843 32.4893 33.4509 32.5859C33.2176 32.6826 33.0056 32.8242 32.827 33.0028C32.6485 33.1814 32.5068 33.3934 32.4102 33.6267C32.3135 33.86 32.2638 34.1101 32.2638 34.3626C32.2638 34.6152 32.3135 34.8652 32.4102 35.0986C32.5068 35.3319 32.6485 35.5439 32.827 35.7225C33.0056 35.901 33.2176 36.0427 33.4509 36.1393C33.6843 36.236 33.9343 36.2857 34.1869 36.2857H55.066C55.576 36.2857 56.0652 36.0831 56.4258 35.7225C56.7865 35.3618 56.9891 34.8727 56.9891 34.3626Z" fill="#5AC37E"/>
<path d="M24.967 48.5495H20.8791C20.3691 48.5495 19.88 48.7521 19.5193 49.1127C19.1587 49.4734 18.9561 49.9625 18.9561 50.4725C18.9561 50.9826 19.1587 51.4717 19.5193 51.8324C19.88 52.193 20.3691 52.3956 20.8791 52.3956H25.022C25.532 52.3956 26.0212 52.193 26.3818 51.8324C26.7425 51.4717 26.9451 50.9826 26.9451 50.4725C26.9451 49.9625 26.7425 49.4734 26.3818 49.1127C26.0212 48.7521 25.532 48.5495 25.022 48.5495H24.967Z" fill="#5AC37E"/>
</svg>
